# xmcd CD database file
#
# Track frame offsets:
#	150
#	12097
#	24842
#	38732
#	50875
#	62932
#	75740
#	88017
#	101400
#	115015
#	129090
#	141577
#	153220
#	165337
#	178937
#	191260
#	203890
#	216307
#	228445
#	241402
#	252285
#
# Disc length: 3571 seconds
#
# Revision: 5
# Processed by: cddbd v1.5.2PL0 Copyright (c) Steve Scherf et al.
# Submitted via: CDex 1.79
#
DISCID=160df115
DTITLE=Various Artist - Good Time Blues
DYEAR=1991
DGENRE=Blues
TTITLE0=Mississippi Jook Band - Hittin' the Bottle Stomp
TTITLE1=Mississippi Jook Band - Skippy Whippy
TTITLE2=Memphis Jug Band - Mary Anna Cut Off
TTITLE3=Memphis Jug Band - Gator Wobble
TTITLE4=Son Becky - Mistreated Washboard Blues
TTITLE5=Charlie Burse and His Memphis Mudcats - Baby You Win
TTITLE6=Charlie Burse and His Memphis Mudcats - Oil It Up and Go
TTITLE7=The Georgia Browns - Tampa Strut
TTITLE8=Georgia Cotton Pickers - Diddle-Da-Diddle
TTITLE9=Georgia Cotton Pickers - She's Coming Back Some Cold Rainy Day
TTITLE10=Big Joe and His Washboard Band - If You Take Me Back
TTITLE11=Big Joe and His Washboard Band - I'm Through with You
TTITLE12=Big Joe and His Washboard Band - When You Said Goodbye
TTITLE13=Big Joe and His Washboard Band - I Love You Baby
TTITLE14=Buddy Moss - Struggle Buggie
TTITLE15=Buddy Moss - I'm Sittin' Here Tonight
TTITLE16=Mississippi Jook Band - Dangerous Woman
TTITLE17=Mississippi Jook Band - Barbecue Bust
TTITLE18=Peter Chatman - Diggin' My Potatoes No.2
TTITLE19=Sonny Terry - Touch It Up and Go
TTITLE20=Bernice Edwards - Ninth Street Stomp
EXTD=YEAR: 1991
EXTT0=
EXTT1=
EXTT2=
EXTT3=
EXTT4=
EXTT5=
EXTT6=
EXTT7=
EXTT8=
EXTT9=
EXTT10=
EXTT11=
EXTT12=
EXTT13=
EXTT14=
EXTT15=
EXTT16=
EXTT17=
EXTT18=
EXTT19=
EXTT20=
PLAYORDER=
